Coordinates
version=1
nRows=28
nColumns=23
inDegrees=yes

Units are S.I. units (second, meters, Newtons, ...)
If the header above contains a line with 'inDegrees', this indicates whether rotational values are in degrees (yes) or radians (no).

endheader
time	pelvis_tilt	pelvis_list	pelvis_rotation	pelvis_tx	pelvis_ty	pelvis_tz	hip_flexion_r	hip_adduction_r	hip_rotation_r	knee_angle_r	knee_angle_r_beta	ankle_angle_r	subtalar_angle_r	mtp_angle_r	hip_flexion_l	hip_adduction_l	hip_rotation_l	knee_angle_l	knee_angle_l_beta	ankle_angle_l	subtalar_angle_l	mtp_angle_l
      7.50000000	     -5.34788637	      9.36854367	     14.40695674	      2.14997933	      0.83927670	      0.98510584	    -13.57719619	     -6.72219020	    -17.70617159	     99.73763480	      1.74075012	    -16.05775876	    -15.09420762	      0.00000000	     33.97329300	     19.16137421	     -1.00201688	     34.72947994	      0.60614377	      6.01941172	     -7.36863863	      0.00000000
      7.50666667	     -5.17290429	      9.40540291	     15.81657124	      2.14734037	      0.83487049	      0.98418535	    -11.84038879	     -7.29811391	    -18.83309499	    103.89247699	      1.81326579	    -15.68996875	    -15.10030883	      0.00000000	     33.68626220	     19.78387072	     -0.07055518	     38.63454531	      0.67430002	      7.09338388	     -8.63777226	      0.00000000
      7.51333333	     -4.85900294	      9.37755047	     17.05633432	      2.14453527	      0.83119206	      0.98326042	    -10.05039375	     -7.94852662	    -19.72448533	    107.78678306	      1.88123425	    -15.38344681	    -15.41099325	      0.00000000	     33.03438546	     20.24649915	      1.02376805	     42.25658621	      0.73751656	      8.87472789	     -9.45914298	      0.00000000
      7.52000000	     -4.30034002	      9.40949489	     18.01744004	      2.14172093	      0.82852710	      0.98248990	     -8.32358810	     -8.76191491	    -20.27645866	    111.37707342	      1.94389664	    -15.13742193	    -15.96678567	      0.00000000	     31.79132040	     20.54640068	      2.17410771	     45.37639619	      0.79196752	     11.11616535	     -9.97292137	      0.00000000
      7.52666667	     -3.72315956	      9.37244483	     18.77808262	      2.13881896	      0.82650061	      0.98173891	     -6.35175281	     -9.66271501	    -20.51890968	    114.69042179	      2.00172548	    -14.94809428	    -16.59011615	      0.00000000	     30.26228800	     20.61942725	      3.36222252	     48.03864302	      0.83843249	     13.56756417	    -10.24143901	      0.00000000
      7.53333333	     -3.71813373	      8.85600462	     19.34668906	      2.13577949	      0.82431287	      0.98142719	     -3.18256063	    -10.15333428	    -20.23083762	    117.78428740	      2.05572362	    -14.91500290	    -17.47113918	      0.00000000	     29.35953394	     19.99699720	      4.08479444	     50.48964135	      0.88121048	     16.55539045	     -8.82288335	      0.00000000
      7.54000000	     -3.39449053	      8.55514606	     19.73948900	      2.13291980	      0.82324423	      0.98098395	     -0.29547118	    -10.90864857	    -19.75987248	    120.39569973	      2.10130137	    -14.88130733	    -18.22636664	      0.00000000	     27.63215967	     19.50764617	      5.16716881	     52.16903290	      0.91052139	     19.24641593	     -8.17843606	      0.00000000
      7.54666667	     -2.86754119	      8.43898665	     19.89772877	      2.13029119	      0.82310723	      0.98068459	      2.50372850	    -11.76637898	    -18.94445991	    122.54892720	      2.13888227	    -14.76603188	    -18.74649352	      0.00000000	     25.26440040	     19.02982587	      6.32865736	     53.11886400	      0.92709907	     21.63210418	     -7.94180410	      0.00000000
      7.55333333	     -3.04386213	      7.93419241	     19.69743737	      2.12771482	      0.82248374	      0.98099847	      6.60188011	    -12.31069420	    -17.59560300	    124.43687126	      2.17183311	    -14.71083615	    -19.50820042	      0.00000000	     23.71695155	     17.94821751	      6.71007217	     53.81347555	      0.93922233	     24.09955411	     -6.46769604	      0.00000000
      7.56000000	     -3.06418313	      7.60857702	     19.39157529	      2.12551645	      0.82262409	      0.98124952	     10.50877479	    -12.88464700	    -16.10483162	    125.77281113	      2.19514966	    -14.50718915	    -19.93833432	      0.00000000	     21.60921863	     17.01624885	      7.25679682	     53.85458269	      0.93993979	     26.00992353	     -5.62150381	      0.00000000
      7.56666667	     -3.29683553	      7.30931998	     18.95730487	      2.12370770	      0.82301271	      0.98149078	     14.68590863	    -13.40827613	    -14.42277991	    126.61855875	      2.20991074	    -14.16013348	    -20.19208019	      0.00000000	     19.45387242	     16.14426231	      7.75581483	     53.34466068	      0.93103997	     27.38502252	     -5.14804178	      0.00000000
      7.57333333	     -3.75192713	      7.03680603	     18.38674530	      2.12228176	      0.82357730	      0.98178424	     19.11699838	    -13.82045433	    -12.56592484	    126.98973832	      2.21638905	    -13.67334815	    -20.27834070	      0.00000000	     17.30802387	     15.35223282	      8.18568121	     52.35240487	      0.91372184	     28.18162037	     -4.96516572	      0.00000000
      7.58000000	     -3.82286829	      6.58399960	     18.18711044	      2.12167928	      0.82527770	      0.98142464	     22.69549962	    -13.92193764	    -11.41524941	    126.52321618	      2.20824670	    -13.07442891	    -20.25848704	      0.00000000	     14.51137538	     14.39352916	      9.19377545	     50.98445315	      0.88984657	     28.63275328	     -4.58900037	      0.00000000
      7.58666667	     -4.86216553	      6.49839598	     17.03076514	      2.12101067	      0.82578765	      0.98233771	     27.80355730	    -14.04980341	     -8.90891089	    126.10189680	      2.20089329	    -12.27406256	    -19.98651709	      0.00000000	     12.66156727	     13.77957611	      8.85398258	     49.16607000	      0.85810980	     28.66033386	     -4.81299390	      0.00000000
      7.59333333	     -5.17181381	      6.11197835	     16.30439751	      2.12140879	      0.82792767	      0.98262976	     31.46631772	    -13.70046322	     -7.48003097	    124.74415802	      2.17719628	    -11.38904265	    -19.72284802	      0.00000000	      9.86623307	     12.75029993	      9.10292466	     47.05733132	      0.82130537	     28.53542663	     -4.56090398	      0.00000000
      7.60000000	     -5.64623849	      5.65714235	     15.53994251	      2.12224195	      0.83019608	      0.98291618	     35.06800987	    -13.16170895	     -6.20882065	    122.93847356	      2.14568114	    -10.41989510	    -19.31054601	      0.00000000	      7.21593642	     11.66799440	      9.12451896	     44.73607433	      0.78079179	     28.06646181	     -4.13762252	      0.00000000
      7.60666667	     -6.17094140	      5.12373648	     14.72721396	      2.12355786	      0.83275542	      0.98327539	     38.43025404	    -12.40996684	     -5.16019129	    120.67389173	      2.10615673	     -9.38641761	    -18.79783788	      0.00000000	      4.59808993	     10.48606723	      8.88728900	     42.19344872	      0.73641460	     26.97761918	     -3.64051285	      0.00000000
      7.61333333	     -6.64377069	      4.51896215	     13.87035767	      2.12532311	      0.83576803	      0.98368981	     41.40182921	    -11.46176374	     -4.35401629	    117.95188516	      2.05864875	     -8.33741758	    -18.19066664	      0.00000000	      1.90654931	      9.20429398	      8.38783010	     39.40791250	      0.68779782	     25.04119307	     -3.16079368	      0.00000000
      7.62000000	     -6.15184468	      3.63126702	     13.16391325	      2.12803734	      0.84072925	      0.98385427	     42.66749686	    -10.16526338	     -4.34799008	    114.47489385	      1.99796381	     -7.29707331	    -17.63771416	      0.00000000	     -1.94263269	      7.47746775	      8.17216663	     36.13228705	      0.63062738	     22.27151286	     -3.14816275	      0.00000000
      7.62666667	     -6.91679829	      2.94128801	     12.20971486	      2.13032522	      0.84377254	      0.98446636	     45.39988532	     -8.97602676	     -3.71739173	    111.05944536	      1.93835299	     -6.29107166	    -16.91388960	      0.00000000	     -4.21663716	      6.22534276	      6.97181306	     33.15877995	      0.57872989	     18.81285528	     -2.61154144	      0.00000000
      7.63333333	     -6.21093783	      1.81776506	     11.46500068	      2.13369908	      0.84944035	      0.98473497	     45.78720274	     -7.37031020	     -4.08300059	    106.79643559	      1.86394943	     -5.33851572	    -16.41803886	      0.00000000	     -8.23385399	      4.33571590	      6.20864505	     29.55669989	      0.51586173	     14.55518692	     -2.81806783	      0.00000000
      7.64000000	     -6.90073727	      1.14608997	     10.33567454	      2.13637098	      0.85274714	      0.98564018	     47.87205969	     -5.95374818	     -3.48122440	    102.73665534	      1.79309290	     -4.39391874	    -15.75618437	      0.00000000	    -10.48362368	      3.26800472	      4.33243490	     26.52371397	      0.46292614	     10.09980475	     -2.22405661	      0.00000000
      7.64666667	     -6.56572114	     -0.06306687	      9.70149956	      2.13984349	      0.85793224	      0.98582038	     48.14262723	     -4.37809092	     -3.94546505	     97.91520011	      1.70894263	     -3.52860821	    -15.41042703	      0.00000000	    -13.78685768	      1.53753839	      2.95572611	     23.28219566	      0.40635097	      5.11142885	     -2.07954681	      0.00000000
      7.65333333	     -6.89136468	     -0.91050980	      8.85226845	      2.14297446	      0.86187314	      0.98634855	     49.09234992	     -2.97567662	     -3.83050078	     93.09861973	      1.62487744	     -2.61614712	    -15.03612968	      0.00000000	    -16.18697132	      0.42082620	      1.05415564	     20.49626443	      0.35772730	      0.18356423	     -1.61029013	      0.00000000
      7.66000000	     -7.69891111	     -1.42859116	      7.85109736	      2.14586747	      0.86483973	      0.98714368	     50.44087755	     -1.74115399	     -3.28528705	     88.22802405	      1.53986951	     -1.62888236	    -14.66309314	      0.00000000	    -17.83642639	     -0.18174768	     -1.20598952	     18.25518397	      0.31861307	     -4.50666112	     -0.89228309	      0.00000000
      7.66666667	     -7.82357313	     -2.30860787	      7.26672950	      2.14915015	      0.86891690	      0.98736974	     50.56131729	     -0.47746748	     -3.39989411	     82.79473935	      1.44504081	     -0.70937735	    -14.57046311	      0.00000000	    -20.04529628	     -1.23840297	     -3.05667915	     16.19942779	      0.28273335	     -9.01207588	     -0.62921890	      0.00000000
      7.67333333	     -8.53271909	     -2.69650276	      6.46750366	      2.15210203	      0.87167173	      0.98800477	     51.25188796	      0.54486921	     -2.87840577	     77.43722519	      1.35153454	      0.35882317	    -14.43383759	      0.00000000	    -21.37389149	     -1.64522424	     -5.17752111	     14.82721937	      0.25878380	    -12.84736958	     -0.13245237	      0.00000000
      7.68000000	     -9.01016061	     -3.16460266	      5.88061556	      2.15499230	      0.87461053	      0.98836706	     51.39111316	      1.47647097	     -2.57766977	     71.75975457	      1.25244399	      1.37793157	    -14.34224706	      0.00000000	    -22.64962202	     -2.19151446	     -7.10490451	     14.05335405	      0.24527730	    -16.09919697	      0.07766923	      0.00000000
